#!OML:ASF F:\VICON\USERDATA\INSTALL\rory3\rory3.ASF
:FULLY-SPECIFIED
:DEGREES
625
root -1.23042 18.0817 -8.29437 14.6442 30.7779 5.63174
lowerback -5.3534 -2.25751 -5.23164
upperback -2.03142 -2.69019 -2.01545
thorax 1.04724 -1.32517 0.68554
lowerneck -17.1154 2.16182 3.75684
upperneck 19.374 2.44412 -1.93045
head 8.97138 1.22532 -0.968693
rclavicle -9.49197e-015 -5.1684e-015
rhumerus -40.2684 8.52608 -92.2028
rradius 29.874
rwrist 0.197549
rhand -19.8912 9.36854
rfingers 7.12502
rthumb 6.44487 -20.5134
lclavicle -9.49197e-015 -5.1684e-015
lhumerus -33.6687 -18.0242 87.4805
lradius 45.0847
lwrist 15.8855
lhand -9.17951 26.953
lfingers 7.12502
lthumb 16.7736 56.2485
rfemur -36.2124 -7.73723 13.9664
rtibia 59.7563
rfoot -13.8183 5.87116
rtoes -11.2632
lfemur -17.6906 14.2966 -30.5308
ltibia 28.5525
lfoot -21.1579 -11.1601
ltoes -9.55434
626
root -1.1644 18.0611 -8.20761 14.7679 30.7885 5.77005
lowerback -5.37681 -2.23052 -5.30673
upperback -2.07548 -2.64974 -2.04209
thorax 1.0147 -1.30326 0.702719
lowerneck -17.212 2.1263 3.90926
upperneck 19.4441 2.37878 -2.05409
head 9.01463 1.19221 -1.04391
rclavicle -8.06072e-014 -5.96354e-015
rhumerus -40.4256 8.36083 -92.1716
rradius 29.82
rwrist 0.210607
rhand -20.0291 9.30986
rfingers 7.12502
rthumb 6.31173 -20.5761
lclavicle -8.06072e-014 -5.96354e-015
lhumerus -33.4319 -18.3342 87.3933
lradius 45.7963
lwrist 16.3309
lhand -9.79599 26.751
lfingers 7.12502
lthumb 16.1801 56.0957
rfemur -36.9644 -7.58785 14.1096
rtibia 58.2767
rfoot -14.728 5.86119
rtoes -11.6782
lfemur -17.2184 14.4808 -30.6667
ltibia 28.4131
lfoot -21.5702 -10.9006
ltoes -10.5275
627
root -1.09768 18.0526 -8.11776 14.8591 30.7972 5.74326
lowerback -5.47097 -2.18156 -5.26936
upperback -2.13169 -2.58263 -1.9993
thorax 1.00606 -1.26872 0.72822
lowerneck -17.3242 2.08591 3.92794
upperneck 19.5203 2.31804 -2.07068
head 9.05971 1.16301 -1.05987
rclavicle 5.27773e-014 -7.95139e-016
rhumerus -40.5375 8.07074 -91.9956
rradius 29.6798
rwrist 0.433443
rhand -19.9793 9.34564
rfingers 7.12502
rthumb 6.35981 -20.5389
lclavicle 5.27773e-014 -7.95139e-016
lhumerus -33.1585 -18.2964 87.2584
lradius 46.4285
lwrist 16.3106
lhand -9.68402 26.4919
lfingers 7.12502
lthumb 16.2879 55.8278
rfemur -37.6462 -7.39902 14.4003
rtibia 56.6165
rfoot -15.3192 5.95484
rtoes -12.2191
lfemur -16.7904 14.3645 -30.6155
ltibia 28.1776
lfoot -21.6132 -10.6512
ltoes -10.3229
628
root -1.032 18.0475 -8.02753 14.9529 30.8336 5.73151
lowerback -5.5345 -2.16806 -5.2458
upperback -2.17883 -2.5633 -1.98583
thorax 0.991409 -1.25803 0.728974
lowerneck -17.3989 2.04625 3.95994
upperneck 19.5282 2.23314 -1.99309
head 9.07286 1.13379 -1.04908
rclavicle -2.96686e-014 -2.18663e-014
rhumerus -40.6111 7.72432 -91.8664
rradius 29.5066
rwrist 0.899176
rhand -19.8643 9.43905
rfingers 7.12502
rthumb 6.47081 -20.4421
lclavicle -2.96686e-014 -2.18663e-014
lhumerus -32.9764 -18.2054 87.0774
lradius 47.1239
lwrist 16.0986
lhand -9.11559 26.2203
lfingers 7.12502
lthumb 16.8352 55.5105
rfemur -38.2173 -7.2561 14.6823
rtibia 54.8083
rfoot -15.2203 6.1281
rtoes -11.5785
lfemur -16.3266 14.2125 -30.5727
ltibia 27.8958
lfoot -21.6647 -10.4183
ltoes -11.3875
629
root -0.966395 18.0503 -7.93903 15.04 30.8859 5.69997
lowerback -5.58075 -2.15745 -5.16412
upperback -2.20593 -2.55148 -1.97503
thorax 0.985734 -1.25189 0.694426
lowerneck -17.4969 2.01483 3.99124
upperneck 19.4981 2.16324 -1.93881
head 9.07784 1.10852 -1.04405
rclavicle 8.7664e-014 4.25399e-014
rhumerus -40.7191 7.54883 -91.8827
rradius 29.467
rwrist 1.04023
rhand -19.7364 9.40318
rfingers 7.12502
rthumb 6.59428 -20.4741
lclavicle 8.7664e-014 4.25399e-014
lhumerus -32.8206 -18.2514 86.9471
lradius 47.8388
lwrist 16.245
lhand -9.06826 25.9845
lfingers 7.12502
lthumb 16.8807 55.2708
rfemur -38.7233 -7.17046 15.0069
rtibia 52.8627
rfoot -14.9489 6.26882
rtoes -9.88005
lfemur -15.8601 14.2066 -30.5231
ltibia 27.5416
lfoot -21.6389 -10.3162
ltoes -13.1288
630
root -0.89937 18.0543 -7.84812 15.1646 30.9366 5.74207
lowerback -5.64519 -2.19338 -5.20024
upperback -2.23571 -2.59521 -1.89836
thorax 0.998074 -1.27322 0.78839
lowerneck -17.5547 2.02263 3.93807
upperneck 19.4072 2.18853 -1.958
head 9.05723 1.11311 -1.03809
rclavicle -3.65018e-014 -4.57205e-014
rhumerus -40.8213 7.71844 -91.9801
rradius 29.3932
rwrist 0.831262
rhand -19.5419 9.5643
rfingers 7.12502
rthumb 6.78202 -20.3071
lclavicle -3.65018e-014 -4.57205e-014
lhumerus -32.6425 -17.9917 86.8632
lradius 48.4448
lwrist 16.4024
lhand -9.22199 25.8673
lfingers 7.12502
lthumb 16.7327 55.1662
rfemur -39.1684 -7.11607 15.2502
rtibia 50.829
rfoot -14.8431 6.39692
rtoes -6.85894
lfemur -15.316 14.2789 -30.538
ltibia 27.0724
lfoot -21.7112 -10.2147
ltoes -12.9858
631
root -0.832992 18.0506 -7.75611 15.2041 30.9805 5.74642
lowerback -5.66692 -2.18528 -5.19154
upperback -2.23767 -2.58445 -1.84477
thorax 1.00969 -1.26806 0.838593
lowerneck -17.5934 1.98634 3.92959
upperneck 19.2853 2.14391 -1.9911
head 9.02095 1.0868 -1.05342
rclavicle 3.91109e-014 1.31198e-014
rhumerus -40.8817 7.66734 -91.9452
rradius 29.2544
rwrist 0.958205
rhand -19.4229 9.63536
rfingers 7.12502
rthumb 6.89697 -20.2323
lclavicle 3.91109e-014 1.31198e-014
lhumerus -32.4141 -17.8562 86.7577
lradius 48.9657
lwrist 16.564
lhand -9.3305 25.7989
lfingers 7.12502
lthumb 16.6283 55.1066
rfemur -39.5 -7.0331 15.542
rtibia 48.7271
rfoot -14.972 6.26772
rtoes -6.50155
lfemur -14.5751 14.2018 -30.4764
ltibia 26.4632
lfoot -21.9281 -9.89058
ltoes -11.9152
632
root -0.766242 18.0469 -7.65931 15.2202 30.9766 5.80373
lowerback -5.69344 -2.13176 -5.19735
upperback -2.21256 -2.50921 -1.88207
thorax 1.04496 -1.23156 0.807239
lowerneck -17.6869 1.93455 4.02964
upperneck 19.2239 2.04235 -2.0062
head 9.0148 1.04391 -1.08763
rclavicle 1.01678e-013 6.75868e-015
rhumerus -40.918 7.36511 -91.8686
rradius 29.1003
rwrist 1.39993
rhand -19.3091 9.62338
rfingers 7.12502
rthumb 7.00677 -20.2406
lclavicle 1.01678e-013 6.75868e-015
lhumerus -32.249 -17.8906 86.5775
lradius 49.5477
lwrist 16.7182
lhand -9.50034 25.9336
lfingers 7.12502
lthumb 16.4648 55.2549
rfemur -39.6814 -6.91079 15.7732
rtibia 46.536
rfoot -14.9988 5.96698
rtoes -9.02916
lfemur -13.711 14.0855 -30.4475
ltibia 25.7417
lfoot -22.0477 -9.55784
ltoes -11.342
633
root -0.700568 18.0481 -7.56129 15.2393 30.9353 5.9417
lowerback -5.71514 -2.12241 -5.2949
upperback -2.17105 -2.48768 -1.89897
thorax 1.1019 -1.22224 0.84378
lowerneck -17.748 1.95206 4.03065
upperneck 19.1606 2.05656 -1.98147
head 9.0043 1.05243 -1.07702
rclavicle -3.0091e-014 3.18055e-014
rhumerus -40.8906 7.00168 -91.7031
rradius 28.8567
rwrist 2.0365
rhand -19.2342 9.80554
rfingers 7.12502
rthumb 7.07911 -20.0561
lclavicle -3.0091e-014 3.18055e-014
lhumerus -32.1974 -17.7096 86.4354
lradius 50.1482
lwrist 16.7856
lhand -10.4328 25.9893
lfingers 7.12502
lthumb 15.5668 55.3828
rfemur -39.7545 -6.67499 15.8532
rtibia 44.2507
rfoot -14.7504 5.63436
rtoes -9.09766
lfemur -12.7969 13.9852 -30.5035
ltibia 24.9801
lfoot -22.1118 -9.25455
ltoes -11.5442
634
root -0.639832 18.0548 -7.4654 15.2576 31.0693 5.83548
lowerback -5.75499 -2.18989 -5.21192
upperback -2.1946 -2.58237 -1.78936
thorax 1.10645 -1.26949 0.902554
lowerneck -17.7192 2.00174 3.94277
upperneck 19.0412 2.13894 -1.9382
head 8.95909 1.08861 -1.03701
rclavicle -1.7344e-014 -6.75868e-015
rhumerus -40.8295 6.84981 -91.5473
rradius 28.4802
rwrist 2.55169
rhand -19.3752 10.0843
rfingers 7.12502
rthumb 6.943 -19.7819
lclavicle -1.7344e-014 -6.75868e-015
lhumerus -32.1935 -17.2533 86.3158
lradius 50.6516
lwrist 16.8218
lhand -11.2987 25.6177
lfingers 7.12502
lthumb 14.7327 55.0742
rfemur -39.923 -6.44603 16.1961
rtibia 41.8657
rfoot -14.1304 5.28338
rtoes -6.37803
lfemur -12.0524 13.8183 -30.3209
ltibia 24.2006
lfoot -22.4146 -8.8249
ltoes -13.4317
